<?xml version="1.0" encoding="utf-8"?>
<!-- Generator: Adobe Illustrator 21.1.0, SVG Export Plug-In . SVG Version: 6.00 Build 0)  -->
<svg version="1.1" id="圖層_1" xmlns="http://www.w3.org/2000/svg" xmlns:xlink="http://www.w3.org/1999/xlink" x="0px" y="0px"
	 viewBox="0 0 16 16" style="enable-background:new 0 0 16 16;" xml:space="preserve">
<style type="text/css">
	.st0{fill:#3D1101;}
</style>
<title>logo_l</title>
<desc>Created with Sketch.</desc>
<g id="Welcome">
	<g id="Artboard" transform="translate(-794.000000, -98.000000)">
		<path id="logo_l" class="st0" d="M798.3,105.9c-1,2.3-2.7,4.9-4.3,6.4c0.7,0.4,1.9,1.2,2.5,1.7c1.5-1.8,3.3-4.6,4.5-7.2
			L798.3,105.9z M803,107c1.4,2.2,3.3,5.1,4.2,6.9l2.6-1.5c-1-1.8-3.1-4.6-4.4-6.6L803,107z M802.2,102.2l2.1-0.8
			c-0.4-0.9-1.1-2.4-1.7-3.4l-2.6,0.9c0.5,1,1.1,2.4,1.4,3.3h-7v2.6h15.6v-2.5H802.2z"/>
	</g>
</g>
</svg>
