<?xml version="1.0" encoding="utf-8"?>
<!-- Generator: Adobe Illustrator 21.1.0, SVG Export Plug-In . SVG Version: 6.00 Build 0)  -->
<svg version="1.1" id="圖層_1" xmlns="http://www.w3.org/2000/svg" xmlns:xlink="http://www.w3.org/1999/xlink" x="0px" y="0px"
	 viewBox="0 0 841.9 841.8" style="enable-background:new 0 0 841.9 841.8;" xml:space="preserve">
<style type="text/css">
	.st0{fill:#00936E;}
	.st1{fill:#00CC99;}
	.st2{display:none;fill:#FFFFFF;enable-background:new    ;}
	.st3{font-family:'LiHeiPro';}
	.st4{font-size:156.7916px;}
	.st5{fill:#FFFFFF;}
</style>
<g>
	<path class="st0" d="M57.1,0l57,57.1H0L57.1,0z"/>
	<path class="st0" d="M841.9,782.2l-54.4,59.6l-5.2-125.4L841.9,782.2z"/>
	<path class="st1" d="M841.9,784.9V468.7L376.3,0H57.1L841.9,784.9z"/>
</g>
<g>
	<path class="st1" d="M841.9,784.9V468.7L376.3,0H57.1L841.9,784.9z"/>
	<text transform="matrix(0.7071 0.7071 -0.7071 0.7071 270.6411 127.8055)" class="st2 st3 st4">熱銷美食</text>
	<g>
		<path class="st5" d="M304.6,130.2l4.3,12.1c-12.5,6-24.2,10.2-35.1,12.5l-2.7-15.5C281.7,137.6,292.8,134.6,304.6,130.2z
			 M326.2,95.5l15.2,15.2l9.5-9.5l9.1,9.1l-9.5,9.5l16,16l-7.9,7.9l-16-16l-7.6,7.6c6.6,5.2,13.5,10.5,20.6,15.7l-8.6,8.6
			c-15.5-11.2-32.2-24.4-49.9-39.5l7.9-10.3c6.2,5.8,12.9,11.5,20,17.3l8.6-8.6l-15.2-15.2L326.2,95.5z M329.6,158.8
			c-4.6,8.7-9.9,17.8-16,27.3L301,175.3c7-9.1,12.9-17.3,17.7-24.6L329.6,158.8z M365.1,54.9l16.5,16.5l7-7l9.5,9.5l-7,7L408,97.8
			l-7.8,7.8l-16.8-16.9l-6.5,6.5l18.6,18.6l-8.2,8.2l-9.5-9.5l-2.2,2.2c-2,2-1.8,4.1,0.4,6.4l6.4,6.4l-7.3,7.3l-8.6-8.6
			c-3.1-3.1-5-6.1-5.5-9.1s0.6-5.9,3.3-8.6l4.8-4.8l-9.1-9.1c-4.2,2-8.2,3.1-11.9,3.4c-5,0.7-13-0.6-24.1-3.9l3.9-12.5
			c6,2.9,11.2,4.5,15.6,4.8c2.6,0.4,5.1,0.1,7.5-0.7l-11.4-11.4l8.2-8.2l19.5,19.5l6.5-6.5l-16.5-16.5L365.1,54.9z M354.7,183
			c-3.9,9.8-8.8,20-14.6,30.4L327.9,203c6.7-10.1,12-19.4,16-28.2L354.7,183z M429.7,105.5l9.5,9.5L427,127.2l18.6,18.6
			c-14,13.4-26.8,25.9-38.6,37.7c-3.4,3.4-6.1,6.7-8.2,10c-1.4,2-1.8,3.3-1.3,3.8c0.7,0.7,5.4-3.2,14.3-11.6l3.9,13.4
			c-9.9,7.5-16.7,11.5-20.4,12c-3.3,0.5-5.9-0.1-7.8-2c-2.2-2.2-3.6-4.8-4.2-7.8c-0.6-3.5,0.1-7.2,2.2-11.1c1.6-3,4-6.4,7.3-10.2
			h-9.1c1-5.5,1.6-11.5,2-17.7c-0.2,0.1-0.4,0.2-0.6,0.3c-10.2,6.2-22.4,10.7-36.6,13.5l-1.3-15.1c11.6-1.6,22.2-5.1,31.9-10.6
			c2.2-1.2,4.6-2.7,7.1-4.4c-0.1-7-0.4-14.4-0.9-22.2l11.6,0.3c0.3,4.3,0.6,8.5,0.8,12.5c3.5-3,7.1-6.5,11-10.3l-11.8-11.8l8.6-8.6
			l11.8,11.8L429.7,105.5z M379.8,203.7c-2.1,12.1-5.2,24-9.5,35.7l-13-5.2c4.9-12.7,8.3-24.9,10.3-36.5L379.8,203.7z M398,153.9
			c0,7.7-0.3,14.9-0.9,21.5l0.9-0.9c8.2-8.2,17.9-18.2,29-29.9l-8.6-8.6C411.3,142.9,404.5,148.9,398,153.9z"/>
		<path class="st5" d="M503.4,179.1c0.7,12.6,0.4,24.7-0.9,36.4l-14.3-0.3c1.8-12.8,2.8-22.8,2.9-29.9c-9.5,2.3-19.4,4-29.5,5.1
			l27.4,27.4l-9.1,9.1l-12.1-12.2l-9.1,9.1l15.1,15.1l-9.1,9.1l-15.1-15.1l-32,32c6.6,3.9,13.5,7.6,20.7,11.2l-9.5,9.5
			c-15.9-7.9-32.3-18-49.3-30.3l8.6-11.3c5.6,4.9,11.7,9.5,18.3,13.9l34.1-34.1l-16.1-16.1l9.1-9.1l16.1,16.1l9.1-9.1l-10.9-10.9
			l3.5-3.5c-2.4,0.2-4.9,0.4-7.4,0.6l7.4-14.3c13.7,0,28.5-2.1,44.1-6.2L503.4,179.1z M426.6,221.3c-3.4,7.7-9.5,16.6-18.2,26.8
			l-9.6-7.9c9.5-10.1,16-18.6,19.6-25.6L426.6,221.3z M543.5,218.6l10,10l-28,28l21.2,21.2l-62,62c-3.5,3.5-7,5.2-10.6,5.3
			c-3.1,0.1-6.1-1.2-8.9-4l-15.5-15.5l7.3-11.8l13.4,14.3c2.2,1.9,4.5,1.7,7-0.8l10.4-10.4l-32.2-32.2l-24.7,24.7l-9.9-9.7
			l73.7-73.7l20.7,20.7L543.5,218.6z M451.7,245.4l5.8,9.1c-6.9,5.6-14.2,10.5-21.7,14.6l-5.2-10.3C437.9,255.5,445,251,451.7,245.4
			z M463.8,276.6l32.2,32.2l12.2-12.2L476,264.4L463.8,276.6z M484.2,256.2l32.2,32.2l11.6-11.7l-32.2-32.2L484.2,256.2z
			 M522.8,205.6c-1.3,10.6-3.6,21-7,31.2l-13-5.2c3.8-11.1,6.5-21.8,7.9-32L522.8,205.6z M567.3,247.5l4.4,12.2
			c-11.3,4.8-22,8-32.2,9.5l-2.6-15.6C546.7,252.8,556.8,250.8,567.3,247.5z"/>
		<path class="st5" d="M620.5,295.7c-0.5,6.6-1.9,13.5-4.2,20.8l19.5,19.5c7.4-0.6,14.7-1.9,22-4l7,13.9c-5.9,1-11.7,1.6-17.4,1.7
			l23.9,23.9l-9.1,9.1l-40.7-40.7l-6.9,6.9l36.4,36.4l-9.1,9.1l-36.4-36.4l-2.2,2.2c-2,2-3.9,3.8-5.8,5.5l45.6,45.6l-9.5,9.5
			l-46.3-46.3c-3.5,2.8-6.9,5.2-10.1,7.2l47.8,47.8l-9.1,9.1l-37.3-37.3c-1.7,4.7-2.3,9.1-1.7,13.4c0.4,4.9,2.3,10.9,5.7,18.1
			c2.9,6.3,8.2,15.1,15.9,26.5l-16.4,3.5c-6.9-11.4-12-21.3-15.2-29.6c-3.1-8.6-4.5-16.2-4.2-22.8c0.1-6.8,2-13.3,5.7-19.4l-3-3
			c-5.3,2.4-10.5,4-15.4,4.8c-17,2.8-36.7-4.6-59.2-22.2l5.2-14.7c20.5,18,38,25.6,52.4,22.9c2.1-0.4,4.2-0.9,6.2-1.6l-38.4-38.4
			l9.1-9.1l41.7,41.7c3.4-2.1,6.8-4.4,10.2-7.1L534,319.1l9.5-9.5l44.1,44.1c2-1.8,3.9-3.7,5.8-5.5l2.2-2.2l-35.1-35.3l9.1-9.1
			l35.1,35.1l6.9-6.9l-39.9-39.9l9.1-9.1L605,305c0.7-4.7,1.2-10,1.4-15.9L620.5,295.7z"/>
		<path class="st5" d="M754.4,429.5c0.5,12.9,2.5,24.8,6,35.7c2.1,8.1,7.4,20.1,15.7,36.1l-15.1,3.1c-2.4-4.4-4.7-8.8-6.7-13.3
			l-38.5,38.5l-32-32c-1.2,6.4-1.6,12.3-1.3,17.7c11.9,7.6,24.6,13.4,38.1,17.3v13.7c-11.6-3.6-23.4-9-35.3-16.2
			c0,0.3,0.1,0.6,0.2,0.9c2.2,8.3,10.4,20.6,24.6,37l-13.9,7c-14.6-19.3-23.1-35-25.5-47.2c-2.4-11.7-1.6-25.3,2.3-40.9l-18-18
			l-19,19.3c8.8,6.3,18.3,12.4,28.5,18.3L654,517c-16-9.3-32.6-20.7-49.9-34.1l9.5-12.2c3.3,2.9,6.8,5.8,10.4,8.6l58.2-58.2
			c-5.1-2-10.3-4.2-15.7-6.7l4.8-14.3c16.9,8.4,30.8,13.9,41.9,16.4c8.9,2.1,19.4,3.3,31.7,3.5L754.4,429.5z M664.3,459.9l50.2,50.2
			l8.3-8.3l-50.2-50.2L664.3,459.9z M680.9,443.3l50.2,50.2l7.3-7.3L688.2,436L680.9,443.3z M696.4,426l22.7,22.7
			c1.8-4.4,3.4-8.6,4.5-12.8l11.4,8.8c-1.6,4.3-3.7,8.9-6.1,13.9l20.7,20.7c-4.6-13.3-7.6-28.4-9-45.3c-12.6-0.9-24-2.6-34.3-5
			C703.2,428.2,699.9,427.2,696.4,426z"/>
	</g>
</g>
</svg>
