<?xml version="1.0" encoding="utf-8"?>
<!-- Generator: Adobe Illustrator 21.1.0, SVG Export Plug-In . SVG Version: 6.00 Build 0)  -->
<svg version="1.1" id="圖層_1" xmlns="http://www.w3.org/2000/svg" xmlns:xlink="http://www.w3.org/1999/xlink" x="0px" y="0px"
	 viewBox="0 0 24 24" style="enable-background:new 0 0 24 24;" xml:space="preserve">
<style type="text/css">
	.st0{opacity:0.5;fill:#3D1101;enable-background:new    ;}
</style>
<path class="st0" d="M15.1,10.9h-0.6V9.7c0-1.3-1.1-2.5-2.5-2.5S9.5,8.4,9.5,9.7v1.2H8.9c-0.7,0-1.2,0.5-1.2,1.2v4.3
	c0,0.7,0.5,1.2,1.2,1.2h6.1c0.7,0,1.2-0.5,1.2-1.2v-4.3C16.3,11.5,15.7,10.9,15.1,10.9z M12,16.1c-0.4,0-0.8-0.4-0.8-0.8
	s0.4-0.8,0.8-0.8c0.4,0,0.8,0.4,0.8,0.8S12.4,16.1,12,16.1z M13.2,11.6h-2.5V9.7c0-0.7,0.5-1.2,1.2-1.2s1.2,0.5,1.2,1.2L13.2,11.6
	L13.2,11.6z"/>
</svg>
