<?xml version="1.0" encoding="utf-8"?>
<!-- Generator: Adobe Illustrator 21.1.0, SVG Export Plug-In . SVG Version: 6.00 Build 0)  -->
<svg version="1.1" id="圖層_1" xmlns="http://www.w3.org/2000/svg" xmlns:xlink="http://www.w3.org/1999/xlink" x="0px" y="0px"
	 viewBox="0 0 24 24" style="enable-background:new 0 0 24 24;" xml:space="preserve">
<style type="text/css">
	.st0{opacity:0.5;fill:#3D1101;enable-background:new    ;}
</style>
<path class="st0" d="M16.4,8.5H7.7C7,8.5,6.4,9.1,6.4,9.7v5.6c0,0.7,0.6,1.3,1.3,1.3h8.8c0.7,0,1.3-0.6,1.3-1.3V9.7
	C17.6,9,17.1,8.5,16.4,8.5z M10.4,13l1,0.9c0.2,0.2,0.5,0.2,0.7,0.2s0.5-0.1,0.7-0.2l1-0.9l0,0l2.3,2.3H8.1L10.4,13L10.4,13z
	 M7.7,14.9v-4.3l2.3,2L7.7,14.9z M14.1,12.7l2.3-2v4.2L14.1,12.7z M16.4,9.7v0.2l-4.1,3.6c-0.2,0.2-0.4,0.2-0.5,0L7.7,9.8V9.7H16.4z
	"/>
</svg>
