<?xml version="1.0" encoding="utf-8"?>
<!-- Generator: Adobe Illustrator 21.1.0, SVG Export Plug-In . SVG Version: 6.00 Build 0)  -->
<svg version="1.1" id="圖層_1" xmlns="http://www.w3.org/2000/svg" xmlns:xlink="http://www.w3.org/1999/xlink" x="0px" y="0px"
	 viewBox="0 0 24 24" style="enable-background:new 0 0 24 24;" xml:space="preserve">
<style type="text/css">
	.st0{fill:#3D1101;}
	.st1{fill:#FFFFFF;}
</style>
<g>
	<rect x="-4" y="-4" class="st0" width="32" height="32"/>
	<g>
		<path class="st1" d="M10.3,15.7c-3,0-5.4-2.4-5.4-5.4s2.4-5.4,5.4-5.4s5.4,2.4,5.4,5.4S13.3,15.7,10.3,15.7z M10.3,7.3
			c-1.7,0-3,1.4-3,3c0,1.7,1.4,3,3,3c1.7,0,3-1.4,3-3C13.4,8.6,12,7.3,10.3,7.3z"/>
	</g>
	<path class="st1" d="M17.2,18.9l-3.8-4.4c-0.3-0.3-0.2-0.8,0.1-1c0.3-0.2,0.7-0.2,1,0l4.4,3.8c0.5,0.4,0.6,1.2,0.1,1.7
		s-1.2,0.6-1.7,0.1C17.3,18.9,17.2,18.9,17.2,18.9z"/>
</g>
</svg>
